# xmcd
#
# Track frame offsets:
#	150
#	18105
#	36016
#	57810
#	74491
#	94441
#	112117
#	126195
#	146379
#	164988
#	188490
#	204688
#	224072
#	242813
#	253431
#	269379
#	283328
#	303851
#	321325
#
# Disc length: 4511 seconds
#
# Revision: 1
# Processed by: cddbd v1.5.2PL0 Copyright (c) Steve Scherf et al.
# Submitted via: dBpowerAMP V4.0
#
DISCID=36119d13
DTITLE=Various Artist - Hott Urban Volume 25 Can
DYEAR=2017
DGENRE=Urban
TTITLE0=Drake ft. Quavo And Travi$ Scott - Portland
TTITLE1=Mary J. Blige ft. Kanye West - Love Yourself
TTITLE2=DJ Khaled ft. Justin Bieber, Quavo, Chance The Rapper And Lil Wayne - I'm The One
TTITLE3=Weeknd, The - Reminder
TTITLE4=Big Boi ft. Killer Mike And Jeezy - Kill Jill
TTITLE5=French Montana ft. Swae Lee - Unforgettable
TTITLE6=Kendrick Lamar - DNA
TTITLE7=Rick Ross ft. Young Thug And Wale - Trap Trap Trap
TTITLE8=Lil Yachty ft. Migos - Peek A Boo
TTITLE9=Migos ft. Gucci Mane - Slippery
TTITLE10=Big Sean - Jump Out The Window
TTITLE11=Fat Joe and Remy Ma ft. The-Dream And Vindeta - Heartbreak
TTITLE12=Jidenna - Bambi
TTITLE13=XXXtentacion - Look At Me
TTITLE14=2 Chainz ft. Trey Songz, TY Dolla $ign And Jhene Aiko - It's A Vibe
TTITLE15=Bryson Tiller - Somethin Tells Me
TTITLE16=Mary J. Blige - U and Me (Love Lesson)
TTITLE17=SZA ft. Travis Scott - Love Galore
TTITLE18=TLC ft. Snoop Dogg - Wayback
EXTD=
EXTT0=
EXTT1=
EXTT2=
EXTT3=
EXTT4=
EXTT5=
EXTT6=
EXTT7=
EXTT8=
EXTT9=
EXTT10=
EXTT11=
EXTT12=
EXTT13=
EXTT14=
EXTT15=
EXTT16=
EXTT17=
EXTT18=
PLAYORDER=
